<svg version="1.1" xmlns="http://www.w3.org/2000/svg" xmlns:xlink="http://www.w3.org/1999/xlink" x="0px" y="0px" width="50px" height="50px" viewBox="0 0 576 576" style="enable-background:new 0 0 576 576;" xml:space="preserve"><g style="fill:rgba(255,255,255,.9);"> <path d="M544,96H32c-17.6,0-32,14.4-32,32v320c0,17.6,14.4,32,32,32h512c17.6,0,32-14.4,32-32V128C576,110.4,561.6,96,544,96z M320,160h64v64h-64V160z M416,256v64h-64v-64H416z M224,160h64v64h-64V160z M320,256v64h-64v-64H320z M128,160h64v64h-64V160z M224,256v64h-64v-64H224z M64,160h32v64H64V160z M64,256h64v64H64V256z M96,416H64v-64h32V416z M384,416H128v-64h256V416z M512,416h-96v-64h96V416z M512,320h-64v-64h64V320z M512,224h-96v-64h96V224z"/></g></svg>
