<svg class="tine-logo" version="1.1" id="Chair" xmlns="http://www.w3.org/2000/svg" xmlns:xlink="http://www.w3.org/1999/xlink" x="0px" y="0px" viewBox="0 0 200 200" xml:space="preserve"><path d="M124.013,58.06c0,0-1.443-2.942-2.62-2.354 c-1.177,0.588-1.819,1.818-1.819,1.818l-2.069-0.109l0.045-2.306c0,0,1.765-0.536,1.818-1.444c0.053-0.91-2.193-2.835-2.193-2.835 s-2.941,1.443-2.354,2.622c0.588,1.176,1.819,1.818,1.819,1.818l-0.111,2.094l-0.005,0h-2.139c0,0-1.123-2.354-2.086-2.086 c-0.962,0.268-2.674,2.461-2.674,2.461s2.032,2.621,2.46,2.728c0.427,0.106,1.585-1.611,2.246-2.139l2.147,0.042v2.086 c0,0-2.354,1.124-2.086,2.086c0.268,0.963,2.46,2.674,2.46,2.674s2.622-2.032,2.729-2.46c0.107-0.427-1.611-1.584-2.139-2.245 l0.042-2.122l2.249,0.044c0,0,0.535,1.765,1.444,1.818C122.087,60.306,124.013,58.06,124.013,58.06z"/><path d="M100.945,71.604c0,0,0.535,1.766,1.444,1.819 s2.834-2.194,2.834-2.194s-1.443-2.94-2.621-2.353c-1.177,0.588-1.819,1.819-1.819,1.819l-2.069-0.109l0.045-2.306 c0,0,1.765-0.536,1.818-1.446c0.054-0.908-2.192-2.833-2.192-2.833s-2.942,1.443-2.354,2.619c0.587,1.178,1.819,1.818,1.819,1.818 l-0.111,2.095h-0.005h-2.139c0,0-1.123-2.354-2.085-2.086c-0.963,0.268-2.675,2.46-2.675,2.46s2.033,2.622,2.46,2.729 c0.428,0.107,1.585-1.611,2.247-2.14l2.147,0.042v2.088c0,0-2.354,1.123-2.086,2.086c0.268,0.962,2.46,2.674,2.46,2.674 s2.622-2.034,2.729-2.46c0.106-0.429-1.612-1.587-2.139-2.248l0.042-2.121L100.945,71.604z"/><path d="M84.093,89.232c0,0,0.535,1.765,1.445,1.818 c0.909,0.054,2.834-2.193,2.834-2.193s-1.443-2.941-2.62-2.354c-1.177,0.588-1.819,1.818-1.819,1.818l-2.069-0.109l0.045-2.306 c0,0,1.765-0.536,1.818-1.444c0.053-0.91-2.193-2.835-2.193-2.835s-2.942,1.444-2.354,2.622C79.769,85.426,81,86.068,81,86.068 l-0.111,2.094h-0.005h-2.139c0,0-1.123-2.354-2.086-2.086c-0.962,0.268-2.674,2.46-2.674,2.46s2.033,2.621,2.46,2.728 c0.428,0.107,1.586-1.61,2.246-2.138l2.147,0.042v2.086c0,0-2.354,1.124-2.086,2.086c0.268,0.964,2.46,2.674,2.46,2.674 s2.622-2.032,2.729-2.46c0.107-0.427-1.611-1.584-2.139-2.245l0.042-2.122L84.093,89.232z"/><path d="M64.941,83.052c-0.679,2.325-1.163,13.56,1.065,15.399 c2.228,1.84,4.165,1.549,4.165,1.549s-5.521-0.291-4.165-8.426c1.356-8.136,1.55-14.615,1.55-19.563 c0-7.167-3.39-18.305-0.484-21.889c2.905-3.583,5.424-3.872,9.297-3.97c3.874-0.098,10.169-2.421,11.816-3.777 c1.646-1.356,5.618-2.905,10.557-2.905c4.939,0,8.039,1.936,9.588,2.808c1.549,0.871,6.877,3.776,9.297,3.776 c2.421,0,10.557,0.389,12.009,1.938c1.453,1.549,2.034-0.193,0.872,18.789c0,0,0.581,14.43,0.872,17.53 c0.291,3.1,0.388,10.556-3.39,14.527c0,0,5.037-2.13,4.939-6.393c-0.097-4.261-0.097-9.394-0.097-13.269 c0-3.874-0.679-14.139,0-16.754c0.678-2.615,1.937-11.332,0.969-13.463c-0.969-2.131-2.518-4.842-6.586-4.939 c-4.068-0.097-10.363-1.065-12.203-2.034c-1.84-0.968-10.75-6.294-16.368-6.198c-5.618,0.097-13.366,6.005-17.821,6.586 c-4.455,0.581-12.215,1.163-15.205,4.649c-2.905,3.389-1.646,11.332-0.872,17.916C65.521,71.526,65.619,80.728,64.941,83.052z"/><path d="M118.572,89.232c0,0,0.536,1.765,1.444,1.818 c0.909,0.054,2.834-2.193,2.834-2.193s-1.443-2.941-2.621-2.354c-1.177,0.588-1.819,1.818-1.819,1.818l-2.069-0.109l0.046-2.306 c0,0,1.765-0.536,1.818-1.444c0.054-0.91-2.192-2.835-2.192-2.835s-2.942,1.444-2.354,2.622c0.587,1.176,1.819,1.818,1.819,1.818 l-0.111,2.094h-0.004h-2.14c0,0-1.123-2.354-2.085-2.086c-0.963,0.268-2.675,2.46-2.675,2.46s2.033,2.621,2.46,2.728 c0.428,0.107,1.585-1.61,2.247-2.138l2.147,0.042v2.086c0,0-2.354,1.124-2.086,2.086c0.268,0.964,2.461,2.674,2.461,2.674 s2.622-2.032,2.728-2.46c0.106-0.427-1.612-1.584-2.14-2.245l0.042-2.122L118.572,89.232z"/><path d="M79.916,57.558h-2.139c0,0-1.123-2.354-2.085-2.086 s-2.675,2.46-2.675,2.46s2.033,2.621,2.46,2.727c0.428,0.107,1.586-1.61,2.247-2.139l2.147,0.042v2.088c0,0-2.354,1.123-2.086,2.086 c0.268,0.964,2.461,2.674,2.461,2.674s2.622-2.033,2.729-2.46c0.106-0.428-1.612-1.586-2.14-2.247l0.042-2.122l2.249,0.044 c0,0,0.535,1.767,1.445,1.818c0.909,0.054,2.834-2.193,2.834-2.193s-1.443-2.941-2.62-2.354c-1.177,0.588-1.819,1.82-1.819,1.82 l-2.068-0.109l0.045-2.306c0,0,1.765-0.536,1.818-1.445c0.054-0.909-2.193-2.833-2.193-2.833s-2.942,1.443-2.354,2.621 c0.587,1.177,1.819,1.818,1.819,1.818l-0.111,2.095L79.916,57.558z"/><path d="M100,0.051C44.8,0.051,0.051,44.799,0.051,100 c0,55.2,44.75,99.949,99.949,99.949S199.949,155.2,199.949,100C199.949,44.799,155.2,0.051,100,0.051z M75.788,156.126h-2.906 l-0.194-16.755c1.598-0.727,2.569-2.472,2.569-2.472s1.256,1.238,1.983,1.375L75.788,156.126z M123.922,156.436h-2.906 l-1.516-18.273c1.208-0.177,2.351-0.925,2.351-0.925s1.103,1.842,2.7,2.569L123.922,156.436z M138.668,137.481l-2.937,30.508 l-5.079,0.146l-1.017-29.781c0,0-4.666,0.198-6.545-4.03c0,0-4.218,1.875-12.051,2.723c-3.399,0.368-6.392,1.889-23.534,0 c-11.829-1.303-13.365-3.776-13.365-3.776s-0.872,3.051-6.247,5.375l-0.436,28.474l-5.845,0.289l-1.564-29.054 c-6.102-1.453-6.357-12.134-3.656-13.19c4.37-1.709,32.901,0.752,42.934,0.896c10.034,0.143,39.387-1.992,41.497-1.129 C143.407,125.986,144.582,134.557,138.668,137.481z M153.264,83.923c-3.874,4.068-12.009,10.654-11.041,27.312 c0,0,3.493,9.413-5.618,9.879c-10.456,0.533-36.315,1.55-36.315,1.55l-36.708-1.356c0,0-11.429,1.355-7.555-10.654 c0,0,1.163-7.941-0.581-12.203c-1.743-4.261-13.559-13.365-10.847-17.433s10.46-7.555,18.595-0.582c0,0,0.775-7.36-0.388-16.658 c-1.162-9.297-3.486-15.691,1.938-19.951c5.423-4.261,7.36-4.068,12.978-3.874c5.617,0.194,11.04-7.556,21.306-8.33 c0,0,5.811,0.774,12.978,5.229c7.167,4.456,7.167,3.292,12.009,3.487c4.842,0.194,11.815,1.937,12.397,6.392 c0.581,4.456,0,4.067-0.775,14.527c-0.775,10.46-0.968,15.497-0.581,17.627c0,0,1.938-2.13,6.973-2.324 C147.066,76.369,157.139,79.855,153.264,83.923z"/><path d="M135.353,82.793c0,1.059,1.906,9.529-1.13,16.588 c-3.036,7.058-12,6.564-12,6.564s-41.719,0.423-46.801,0c-5.083-0.423-9.812-4.377-12.212-7.976c-2.4-3.6-1.059-14.896-1.059-14.896 c-0.494-0.07-0.564-1.41-4.306-0.776c-4.266,0.724-2.33,6.283-0.917,9.037c1.412,2.752,3.882,10.305,3.106,14.682 c-0.776,4.376,0.905,7.3,2.264,6.703c1.765-0.776-0.62,0.009,4.251-2.25c4.871-2.258,59.787-1.153,64.394-0.177 c3.985,0.845,5.601,3.254,6.377,3.677s1.986-3.083,1.492-5.906c-0.495-2.824,0.847-13.765,2.329-17.083 c1.483-3.316,1.906-6.282,0-8.328C139.235,80.604,135.353,82.793,135.353,82.793z"/></svg>
