<svg version="1.1" class="tine-navn" xmlns="http://www.w3.org/2000/svg" xmlns:xlink="http://www.w3.org/1999/xlink" x="0px" y="0px" viewBox="0 0 154.5 30.668" xml:space="preserve">
<g>
	<polygon points="4.384,11.668 7.989,11.668 7.989,2.881 11.667,2.881 11.667,0 0.707,0 0.707,2.881 4.384,2.881 	
		"/>
	<rect x="13.442" width="3.613" height="11.668"/>
	<polygon points="23.056,5.262 27.426,11.668 30.824,11.668 30.824,0 27.426,0 27.426,6.455 23.032,0 19.666,0 
		19.666,11.668 23.056,11.668 	"/>
	<polygon points="43.05,9.025 36.826,9.025 36.826,6.726 42.437,6.726 42.437,4.346 36.826,4.346 36.826,2.491 
		42.875,2.491 42.875,0 33.212,0 33.212,11.668 43.05,11.668 	"/>
	<polygon points="54.225,8.795 48.598,8.795 48.598,0 44.992,0 44.992,11.668 54.225,11.668 	"/>
	<path d="M58.034,11.238c0.862,0.419,1.951,0.629,3.267,0.629c1.294,0,2.376-0.243,3.243-0.729
		c0.868-0.485,1.531-1.165,1.99-2.037c0.458-0.873,0.688-1.991,0.688-3.355c0-1.878-0.525-3.339-1.576-4.382
		c-1.051-1.042-2.547-1.563-4.489-1.563c-1.895,0-3.373,0.53-4.434,1.592c-1.062,1.062-1.592,2.544-1.592,4.449
		c0,1.363,0.268,2.499,0.804,3.406C56.472,10.155,57.171,10.819,58.034,11.238z M59.398,3.303c0.44-0.515,1.024-0.772,1.751-0.772
		c0.759,0,1.36,0.254,1.803,0.761c0.443,0.507,0.665,1.31,0.665,2.407c0,1.306-0.212,2.21-0.637,2.715
		c-0.424,0.504-1.024,0.756-1.799,0.756c-0.753,0-1.349-0.258-1.787-0.772c-0.438-0.515-0.657-1.36-0.657-2.539
		C58.738,4.669,58.958,3.817,59.398,3.303z"/>
	<path d="M72.834,6.933h0.318c0.329,0,0.624,0.09,0.883,0.271c0.191,0.138,0.409,0.438,0.653,0.899l1.927,3.565
		h4.074l-1.746-3.381c-0.084-0.17-0.253-0.412-0.505-0.726c-0.252-0.312-0.444-0.518-0.577-0.613
		c-0.196-0.143-0.509-0.286-0.938-0.43c0.536-0.122,0.958-0.276,1.266-0.462c0.483-0.292,0.863-0.673,1.139-1.143
		c0.276-0.469,0.414-1.027,0.414-1.675c0-0.743-0.181-1.373-0.542-1.891s-0.835-0.871-1.425-1.062C77.188,0.095,76.336,0,75.222,0
		h-6.009v11.668h3.622V6.933z M72.834,2.355h1.584c0.658,0,1.106,0.101,1.345,0.303c0.239,0.201,0.358,0.49,0.358,0.867
		c0,0.255-0.076,0.48-0.227,0.677c-0.151,0.196-0.346,0.318-0.585,0.366c-0.472,0.106-0.791,0.159-0.955,0.159h-1.52V2.355z"/>
	<polygon points="91.673,9.025 85.449,9.025 85.449,6.726 91.061,6.726 91.061,4.346 85.449,4.346 85.449,2.491 
		91.499,2.491 91.499,0 81.836,0 81.836,11.668 91.673,11.668 	"/>
	<polygon points="97.03,5.262 101.399,11.668 104.798,11.668 104.798,0 101.399,0 101.399,6.455 97.006,0 93.639,0 
		93.639,11.668 97.03,11.668 	"/>
	<polygon points="110.051,11.668 113.657,11.668 113.657,2.881 117.334,2.881 117.334,0 106.374,0 106.374,2.881 
		110.051,2.881 	"/>
	<polygon points="129.114,9.161 122.325,9.161 128.875,2.332 128.875,0 118.671,0 118.671,2.491 124.524,2.491 
		118.042,9.248 118.042,11.668 129.114,11.668 	"/>
	<polygon points="140.567,9.025 134.343,9.025 134.343,6.726 139.954,6.726 139.954,4.346 134.343,4.346 
		134.343,2.491 140.392,2.491 140.392,0 130.729,0 130.729,11.668 140.567,11.668 	"/>
	<polygon points="145.924,5.262 150.293,11.668 153.692,11.668 153.692,0 150.293,0 150.293,6.455 145.9,0 
		142.533,0 142.533,11.668 145.924,11.668 	"/>
	<path d="M5.123,26.859c0.335-0.166,0.586-0.384,0.752-0.654s0.249-0.559,0.249-0.864
		c0-0.329-0.094-0.644-0.281-0.944c-0.187-0.302-0.446-0.524-0.776-0.67C4.736,23.582,4.297,23.51,3.75,23.51H1.065v7.158h2.729
		c0.456,0,0.841-0.04,1.155-0.119c0.314-0.08,0.575-0.198,0.784-0.354s0.383-0.378,0.525-0.667c0.142-0.287,0.212-0.6,0.212-0.935
		c0-0.417-0.116-0.778-0.349-1.084S5.556,26.986,5.123,26.859z M2.012,24.354h1.431c0.514,0,0.877,0.033,1.089,0.101
		c0.211,0.066,0.375,0.189,0.488,0.371c0.114,0.18,0.171,0.39,0.171,0.627c0,0.251-0.061,0.459-0.183,0.625
		s-0.304,0.285-0.544,0.356C4.281,26.49,3.98,26.518,3.56,26.518H2.012V24.354z M5.347,29.195c-0.094,0.175-0.215,0.308-0.361,0.398
		s-0.329,0.156-0.547,0.195c-0.124,0.022-0.338,0.034-0.645,0.034H2.012v-2.461h1.655c0.456,0,0.805,0.04,1.047,0.12
		c0.243,0.079,0.432,0.218,0.569,0.414c0.137,0.197,0.205,0.43,0.205,0.696C5.489,28.82,5.441,29.021,5.347,29.195z"/>
	<path d="M20.25,23.856c-0.531-0.315-1.126-0.474-1.787-0.474c-1.009,0-1.833,0.336-2.471,1.008
		c-0.638,0.673-0.957,1.603-0.957,2.791c0,0.628,0.137,1.224,0.41,1.787s0.675,1.008,1.206,1.333s1.133,0.488,1.807,0.488
		c0.622,0,1.201-0.147,1.738-0.442c0.537-0.294,0.952-0.728,1.245-1.301s0.439-1.223,0.439-1.948c0-0.716-0.139-1.356-0.417-1.921
		C21.186,24.612,20.781,24.172,20.25,23.856z M20.214,29.228c-0.46,0.501-1.047,0.752-1.76,0.752c-0.7,0-1.282-0.248-1.746-0.745
		c-0.464-0.496-0.696-1.176-0.696-2.038c0-1.077,0.242-1.847,0.725-2.308c0.483-0.46,1.061-0.69,1.731-0.69
		c0.472,0,0.897,0.12,1.277,0.358c0.379,0.24,0.667,0.576,0.864,1.012c0.197,0.434,0.295,0.942,0.295,1.525
		C20.905,28.015,20.674,28.727,20.214,29.228z"/>
	<polygon points="31.561,23.51 30.613,23.51 30.613,30.668 35.086,30.668 35.086,29.823 31.561,29.823 	"/>
	<rect x="43.925" y="23.51" width="0.947" height="7.158"/>
	<path d="M57.442,27.86h2.104v1.333c-0.202,0.179-0.498,0.348-0.889,0.506c-0.391,0.157-0.791,0.236-1.201,0.236
		c-0.472,0-0.918-0.104-1.338-0.312s-0.74-0.527-0.959-0.957s-0.33-0.964-0.33-1.602c0-0.518,0.091-0.998,0.273-1.44
		c0.107-0.257,0.258-0.493,0.452-0.708s0.448-0.389,0.764-0.52c0.316-0.133,0.69-0.198,1.123-0.198c0.361,0,0.69,0.062,0.986,0.188
		c0.296,0.125,0.524,0.292,0.684,0.5s0.293,0.495,0.4,0.859l0.854-0.234c-0.124-0.481-0.304-0.872-0.542-1.172
		s-0.565-0.533-0.984-0.701c-0.418-0.167-0.886-0.251-1.404-0.251c-0.713,0-1.343,0.146-1.89,0.439s-0.966,0.741-1.257,1.345
		c-0.292,0.604-0.437,1.255-0.437,1.951c0,0.703,0.146,1.34,0.439,1.909s0.727,1.005,1.301,1.306
		c0.575,0.302,1.213,0.452,1.917,0.452c0.521,0,1.029-0.094,1.523-0.28c0.495-0.188,0.975-0.467,1.44-0.838v-2.656l-3.032,0.005
		V27.86z"/>
	<path d="M73.576,26.898c-0.287-0.13-0.814-0.282-1.584-0.457c-0.77-0.174-1.246-0.344-1.428-0.51
		c-0.186-0.166-0.278-0.378-0.278-0.635c0-0.296,0.131-0.549,0.393-0.76c0.262-0.209,0.68-0.314,1.252-0.314
		c0.55,0,0.966,0.115,1.248,0.347s0.447,0.573,0.496,1.025l0.908-0.068c-0.016-0.42-0.133-0.796-0.352-1.128
		s-0.53-0.584-0.935-0.754c-0.405-0.172-0.873-0.257-1.404-0.257c-0.482,0-0.919,0.081-1.313,0.244s-0.693,0.401-0.898,0.716
		c-0.205,0.313-0.308,0.651-0.308,1.013c0,0.329,0.084,0.626,0.251,0.892c0.167,0.265,0.422,0.487,0.764,0.666
		c0.264,0.14,0.724,0.289,1.382,0.447c0.658,0.157,1.083,0.273,1.274,0.349c0.299,0.114,0.514,0.255,0.645,0.423
		c0.13,0.167,0.195,0.363,0.195,0.588c0,0.222-0.067,0.426-0.203,0.613c-0.135,0.187-0.341,0.334-0.618,0.441
		s-0.596,0.161-0.957,0.161c-0.407,0-0.773-0.071-1.099-0.212c-0.326-0.143-0.565-0.328-0.72-0.557
		c-0.155-0.23-0.253-0.523-0.295-0.882l-0.894,0.078c0.013,0.479,0.144,0.907,0.393,1.286c0.249,0.38,0.592,0.664,1.03,0.853
		s0.98,0.283,1.628,0.283c0.511,0,0.971-0.094,1.379-0.28c0.409-0.188,0.722-0.449,0.94-0.787c0.218-0.336,0.327-0.695,0.327-1.076
		c0-0.384-0.099-0.724-0.298-1.018C74.3,27.334,73.992,27.091,73.576,26.898z"/>
	<polygon points="83.103,24.354 85.461,24.354 85.461,30.668 86.409,30.668 86.409,24.354 88.777,24.354 
		88.777,23.51 83.103,23.51 	"/>
	<path d="M100.629,25.614c-0.306,0.469-0.566,0.891-0.781,1.265c-0.225-0.403-0.467-0.808-0.728-1.211l-1.411-2.158
		h-1.152l2.759,4.126v3.032h0.947v-3.032l2.856-4.126h-1.104L100.629,25.614z"/>
	<polygon points="112.427,23.51 111.479,23.51 111.479,30.668 115.952,30.668 115.952,29.823 112.427,29.823 	"/>
	<rect x="124.792" y="23.51" width="0.947" height="7.158"/>
	<path d="M139.114,26.898c-0.287-0.13-0.814-0.282-1.584-0.457c-0.77-0.174-1.246-0.344-1.428-0.51
		c-0.186-0.166-0.278-0.378-0.278-0.635c0-0.296,0.131-0.549,0.393-0.76c0.262-0.209,0.68-0.314,1.252-0.314
		c0.55,0,0.966,0.115,1.248,0.347s0.447,0.573,0.496,1.025l0.908-0.068c-0.016-0.42-0.133-0.796-0.352-1.128
		s-0.53-0.584-0.935-0.754c-0.405-0.172-0.873-0.257-1.404-0.257c-0.482,0-0.919,0.081-1.313,0.244s-0.693,0.401-0.898,0.716
		c-0.205,0.313-0.308,0.651-0.308,1.013c0,0.329,0.084,0.626,0.251,0.892c0.167,0.265,0.422,0.487,0.764,0.666
		c0.264,0.14,0.724,0.289,1.382,0.447c0.658,0.157,1.083,0.273,1.274,0.349c0.299,0.114,0.514,0.255,0.645,0.423
		c0.13,0.167,0.195,0.363,0.195,0.588c0,0.222-0.067,0.426-0.203,0.613c-0.135,0.187-0.341,0.334-0.618,0.441
		s-0.596,0.161-0.957,0.161c-0.407,0-0.773-0.071-1.099-0.212c-0.326-0.143-0.565-0.328-0.72-0.557
		c-0.155-0.23-0.253-0.523-0.295-0.882l-0.894,0.078c0.013,0.479,0.144,0.907,0.393,1.286c0.249,0.38,0.592,0.664,1.03,0.853
		s0.98,0.283,1.628,0.283c0.511,0,0.971-0.094,1.379-0.28c0.409-0.188,0.722-0.449,0.94-0.787c0.218-0.336,0.327-0.695,0.327-1.076
		c0-0.384-0.099-0.724-0.298-1.018C139.838,27.334,139.53,27.091,139.114,26.898z"/>
	<polygon points="148.641,24.354 151,24.354 151,30.668 151.947,30.668 151.947,24.354 154.315,24.354 
		154.315,23.51 148.641,23.51 	"/>
	<rect y="16.785" width="154.5" height="1.001"/>
</g>
</svg>
